<svg xmlns="http://www.w3.org/2000/svg" width="32.143" height="20" viewBox="0 0 32.143 20">
  <title>Asset 17</title>
  <path d="M29.028,2.83H20.974v-2h8.054v2Zm-13.416,8.2a5.285,5.285,0,0,1,.779,2.929,5.835,5.835,0,0,1-.888,3.192,5.555,5.555,0,0,1-1.415,1.571,5.479,5.479,0,0,1-2.257,1A13.993,13.993,0,0,1,9.007,20H0V0H9.659c2.434.04,4.161.745,5.18,2.13a5.094,5.094,0,0,1,.914,3.054,4.452,4.452,0,0,1-.924,2.945,4.7,4.7,0,0,1-1.523,1.138A4.436,4.436,0,0,1,15.612,11.034Zm-11-3.149H8.845a4.007,4.007,0,0,0,2.114-.5,1.89,1.89,0,0,0,.811-1.758A1.79,1.79,0,0,0,10.7,3.786a7.542,7.542,0,0,0-2.361-.313H4.612Zm7.565,5.793a2.145,2.145,0,0,0-1.272-2.143,5.01,5.01,0,0,0-2-.339H4.612v5.33H8.839a4.7,4.7,0,0,0,2.025-.351A2.52,2.52,0,0,0,12.177,13.678Zm19.839-3.254a18.849,18.849,0,0,1,.123,2.845H21.709a3.422,3.422,0,0,0,1.5,3.022,3.763,3.763,0,0,0,2.065.538,2.91,2.91,0,0,0,2.848-1.64h3.823a4.657,4.657,0,0,1-1.388,2.589,6.959,6.959,0,0,1-5.388,2.092,7.82,7.82,0,0,1-5.047-1.763q-2.181-1.767-2.184-5.739a7.759,7.759,0,0,1,1.971-5.712,6.913,6.913,0,0,1,5.126-1.987,8.17,8.17,0,0,1,3.368.67,5.794,5.794,0,0,1,2.473,2.122A7.076,7.076,0,0,1,32.016,10.424Zm-3.763.373a3.135,3.135,0,0,0-1-2.264,3.269,3.269,0,0,0-2.22-.775,2.972,2.972,0,0,0-2.235.821,3.866,3.866,0,0,0-1,2.218Z"/>
</svg>
