<svg xmlns="http://www.w3.org/2000/svg" width="88.558" height="125" viewBox="0 0 88.558 125">
  <title>Asset 10</title>
  <path d="M44.279,94.274v0l-.039.01h0ZM88.558,24.566,80.49,114.947,44.225,125,8.059,114.96,0,24.566ZM72.013,43.043H16.479L17.487,54.13H59.863L58.854,65.483H18.476l.993,11.086H57.893L56.606,90.948,44.279,94.274l-.039.011h0l-.01,0L31.883,90.954l-.789-8.841H19.964L21.518,99.52l22.71,6.305.051-.015v0l22.69-6.288.166-1.873L69.741,68.46l.27-2.977ZM66.5,4.883V0H53.069V10.986h7.812v.976H53.068V17.09H66.5V5.859H58.684V4.883Zm-16.113,0V0H36.955V10.986h7.812v.976H36.955V17.09H50.383V5.859H42.57V4.883ZM26.457,11.23V5.615h7.812V0H20.842V16.846H34.27V11.23ZM44.24,94.285h0l.039-.01v0Z"/>
</svg>
