<svg xmlns="http://www.w3.org/2000/svg" width="25.968" height="25.304" viewBox="0 0 25.968 25.304">
  <title>Asset 3</title>
  <g>
    <path d="M11.774,19.634a1.7,1.7,0,0,0,1.2.493,1.749,1.749,0,0,0,1.219-.495l5.676-5.684a1.706,1.706,0,0,0,.012-2.407,1.764,1.764,0,0,0-2.425-.014l-2.769,2.764V1.715a1.71,1.71,0,1,0-3.419,0V14.288L8.511,11.529A1.7,1.7,0,0,0,7.3,11.024H7.284a1.678,1.678,0,0,0-1.194.5,1.7,1.7,0,0,0,0,2.421Z" fill="#fff"/>
    <path d="M24.253,15.649a1.706,1.706,0,0,0-1.707,1.7v4.533H3.419V17.352a1.71,1.71,0,0,0-3.419,0v6.24A1.712,1.712,0,0,0,1.707,25.3H24.253a1.716,1.716,0,0,0,1.715-1.712v-6.24A1.711,1.711,0,0,0,24.253,15.649Z" fill="#fff"/>
  </g>
</svg>
