<svg xmlns="http://www.w3.org/2000/svg" width="22.438" height="19.343" viewBox="0 0 22.438 19.343">
  <title>Asset 13</title>
  <g>
    <path d="M17.792.231c.179.045.357.1.531.159Q18.06.3,17.792.231ZM17.154.107c.029,0,.056.007.084.012L17.194.112ZM16.013.054l.041,0h-.019Z"/>
    <path d="M20.644,10.562,12.36,18.878a1.575,1.575,0,0,1-2.235,0L7.773,16.517l-5.973-6A6.151,6.151,0,0,1,10.483,1.8l.759.763.72-.722.113-.111.116-.107c.031-.029.063-.058.1-.085s.054-.047.081-.07c.047-.04.095-.078.143-.116s.077-.061.116-.089.071-.053.107-.079c.082-.06.166-.117.251-.17.039-.027.077-.051.117-.075.081-.05.164-.1.246-.143.167-.09.336-.174.508-.249.129-.057.26-.108.392-.154s.248-.084.374-.119l.009,0A6.1,6.1,0,0,1,17.154.107l.04.005c.14.02.279.045.417.076h0c.06.013.119.027.179.042q.268.066.531.159A6.077,6.077,0,0,1,20.4,1.628c.076.07.153.143.227.218l.016.014A6.171,6.171,0,0,1,20.644,10.562Z"/>
    <path d="M17.792.231c.179.045.357.1.531.159Q18.06.3,17.792.231ZM17.154.107c.029,0,.056.007.084.012L17.194.112ZM16.013.054l.041,0h-.019Z"/>
    <path d="M15.809.066h0l.065-.005Z"/>
  </g>
</svg>
