<svg xmlns="http://www.w3.org/2000/svg" width="125" height="126.009" viewBox="0 0 125 126.009">
  <title>Asset 3</title>
  <g>
    <path d="M120.087,71.682A59.054,59.054,0,0,1,100,107.147a14.139,14.139,0,0,0,1.845-6.953,11.8,11.8,0,0,0-.129-1.747,13.292,13.292,0,0,0,1.556-16.763,15.457,15.457,0,0,0,2.271-7.912,13.375,13.375,0,0,0-4.574-10.087,13.062,13.062,0,0,0,.876-4.694A14.255,14.255,0,0,0,94.411,46.5a11.628,11.628,0,0,0-8.6-12.238,13.842,13.842,0,0,0-12.225-8.335A13.462,13.462,0,0,0,62.5,32.093a13.462,13.462,0,0,0-11.087-6.166,13.851,13.851,0,0,0-12.224,8.335,11.633,11.633,0,0,0-8.6,12.238,14.256,14.256,0,0,0-7.432,12.491,12.94,12.94,0,0,0,.88,4.694A13.375,13.375,0,0,0,19.46,73.772a15.453,15.453,0,0,0,2.267,7.912,13.306,13.306,0,0,0,1.556,16.763,13.566,13.566,0,0,0,1.218,7.731A58.953,58.953,0,0,1,13.752,93.7C.794,73.469,2.675,47.02,16.722,27.946,31.209,8.266,57.485.812,80.48,7.831c17.83,5.436,31.784,20.092,37.54,37.624,1.014,3.081,5.89,1.761,4.872-1.342A63.974,63.974,0,0,0,76.386,1.505C54.857-3.438,32.1,4.079,16.962,19.882,1.785,35.725-3.411,58.929,2.2,79.928c5.525,20.689,22.191,36.932,42.394,43.311,36,11.362,74.223-13.576,80.366-50.214C125.493,69.838,120.625,68.473,120.087,71.682ZM36.121,114.2c.124.005.249.023.373.027.049.085.107.165.16.249C36.476,114.384,36.3,114.3,36.121,114.2Zm3.907-3.5a2.39,2.39,0,0,0-2.169-1.382,2.66,2.66,0,0,0-.271.013l-.405.049a7.994,7.994,0,0,1-6.743-2.845,9.186,9.186,0,0,1-2.232-8.384,2.366,2.366,0,0,0-.8-2.4,8.669,8.669,0,0,1-3.169-6.65,8.523,8.523,0,0,1,.973-3.939,13,13,0,0,0,7.722,2.636,2.392,2.392,0,0,0,0-4.783c-4.632,0-8.7-4.325-8.7-9.25a8.641,8.641,0,0,1,4.063-7.326,2.392,2.392,0,0,0,.8-3.2,8.512,8.512,0,0,1-1.169-4.254c0-4.925,4.063-9.25,8.695-9.25s8.7,4.325,8.7,9.25a2.392,2.392,0,1,0,4.783,0c0-8.046-6.859-14.8-14.763-13.967a6.842,6.842,0,0,1,11.669-4.361A2.394,2.394,0,0,0,50.4,37.276a11.494,11.494,0,0,0-5.566-3.1,8.551,8.551,0,0,1,6.579-3.468c4.632,0,8.7,4.321,8.7,9.251v13.6a7.916,7.916,0,0,0-3.151-.658,2.394,2.394,0,0,0,0,4.788,3.153,3.153,0,0,1,3.151,3.147V94.629A15.331,15.331,0,0,0,49.563,90.41a2.392,2.392,0,0,0,0,4.784,10.555,10.555,0,0,1,10.544,10.544c0,6.014-4.827,11.1-10.544,11.1A10.568,10.568,0,0,1,40.028,110.7Zm15.287,9.717a15.814,15.814,0,0,0,7.184-6.29,15.849,15.849,0,0,0,7.37,6.37A54.953,54.953,0,0,1,55.315,120.42Zm32.709-5.45c.164-.244.329-.489.484-.742.378,0,.751-.035,1.12-.075C89.1,114.433,88.561,114.7,88.024,114.97Zm9.561-19.212a2.375,2.375,0,0,0-.795,2.4,8.553,8.553,0,0,1,.271,2.04,9.547,9.547,0,0,1-3.33,7.157,7.594,7.594,0,0,1-5.916,2.032l-.405-.049a2.391,2.391,0,0,0-2.436,1.369,10.57,10.57,0,0,1-9.539,6.13c-5.717,0-10.545-5.081-10.545-11.095A10.555,10.555,0,0,1,75.435,95.194a2.392,2.392,0,0,0,0-4.784A15.335,15.335,0,0,0,64.89,94.629V60.836a3.154,3.154,0,0,1,3.152-3.147,2.394,2.394,0,0,0,0-4.788,7.935,7.935,0,0,0-3.152.658v-13.6c0-4.93,4.063-9.251,8.695-9.251a8.564,8.564,0,0,1,6.584,3.468,11.506,11.506,0,0,0-5.57,3.1,2.4,2.4,0,0,0,0,3.383,2.367,2.367,0,0,0,1.689.7h.005a2.369,2.369,0,0,0,1.689-.7,6.848,6.848,0,0,1,11.673,4.365c-7.877-.813-14.767,5.917-14.767,13.967a2.394,2.394,0,0,0,4.787,0c0-4.925,4.059-9.25,8.691-9.25s8.7,4.325,8.7,9.25A8.548,8.548,0,0,1,95.9,63.245a2.388,2.388,0,0,0,.8,3.2,8.637,8.637,0,0,1,4.059,7.326c0,4.925-4.059,9.25-8.691,9.25a2.392,2.392,0,0,0,0,4.783,13.014,13.014,0,0,0,7.717-2.631,8.474,8.474,0,0,1,.974,3.934A8.661,8.661,0,0,1,97.585,95.758Z"/>
    <path d="M74.13,43.655a2.392,2.392,0,1,0-2.391,2.392A2.392,2.392,0,0,0,74.13,43.655Z"/>
    <path d="M53.261,46.047a2.392,2.392,0,1,0-2.391-2.392A2.393,2.393,0,0,0,53.261,46.047Z"/>
    <path d="M44.869,72.164a4.984,4.984,0,0,1-4.544,2.912,2.392,2.392,0,0,0,0,4.783A9.791,9.791,0,0,0,49.852,72.3a13.385,13.385,0,0,0,6.85-3.263,2.391,2.391,0,1,0-3.187-3.565,8.712,8.712,0,0,1-14.492-6.476,2.392,2.392,0,1,0-4.783,0A13.422,13.422,0,0,0,44.869,72.164Z"/>
    <path d="M36.631,97.8a2.392,2.392,0,0,0,0,4.783c4.632,0,8.7,4.321,8.7,9.251a2.392,2.392,0,1,0,4.783,0C50.109,104.227,43.939,97.8,36.631,97.8Z"/>
    <path d="M51.413,83.02a17.2,17.2,0,0,0-14.94,8.7,2.381,2.381,0,0,0-.227,1.818,2.4,2.4,0,0,0,1.125,1.441,2.364,2.364,0,0,0,1.178.311,2.4,2.4,0,0,0,2.085-1.209A12.405,12.405,0,0,1,51.413,87.8a2.392,2.392,0,0,0,0-4.784Z"/>
    <path d="M84.673,79.859a2.392,2.392,0,0,0,0-4.783,4.981,4.981,0,0,1-4.543-2.911A13.427,13.427,0,0,0,90.758,58.989a2.392,2.392,0,1,0-4.783,0A8.695,8.695,0,0,1,71.484,65.47a2.386,2.386,0,0,0-1.725-.6,2.359,2.359,0,0,0-1.649.791,2.386,2.386,0,0,0,.186,3.378A13.428,13.428,0,0,0,75.147,72.3,9.789,9.789,0,0,0,84.673,79.859Z"/>
    <path d="M88.368,97.8c-7.308,0-13.478,6.428-13.478,14.034a2.392,2.392,0,0,0,4.783,0c0-4.926,4.063-9.251,8.695-9.251a2.392,2.392,0,0,0,0-4.783Z"/>
    <path d="M84.365,94.083a2.367,2.367,0,0,0,1.444,1.125,2.26,2.26,0,0,0,.641.089,2.391,2.391,0,0,0,2.075-3.574,17.2,17.2,0,0,0-14.94-8.7,2.394,2.394,0,0,0,0,4.787A12.413,12.413,0,0,1,84.365,94.083Z"/>
  </g>
</svg>
