<svg xmlns="http://www.w3.org/2000/svg" width="88.558" height="125" viewBox="0 0 88.558 125">
  <title>Asset 6</title>
  <path d="M44.279,94.274v0l-.038.01h0ZM88.558,24.566l-8.068,90.38L44.224,125,8.059,114.96,0,24.566ZM72.012,43.043H16.479l.265,2.975,2.725,30.551H57.893L56.605,90.948,44.279,94.274l-.038.011h0l-.011,0L31.883,90.955l-.789-8.842H19.965L21.518,99.52l22.71,6.3.051-.014h0L66.968,99.52l.167-1.873L69.741,68.46l.27-2.977h-40.4L28.6,54.13H71.02l.222-2.492.5-5.62ZM19.027,0V5.566H13.873V0H8.24V16.856h5.634V11.212h5.153v5.644h5.635V0Zm8.084,0V5.59H32.07V16.856h5.634V5.59h4.962V0Zm45.44,11.285V0H66.915V16.856h13.56V11.285ZM58.235,0,54.624,5.923,51.01,0H45.136V16.856h5.512V8.5l3.88,5.993h.1L58.5,8.5v8.354h5.611V0ZM44.279,94.274v0l-.038.01h0Z"/>
</svg>
