<svg xmlns="http://www.w3.org/2000/svg" width="100" height="100" viewBox="0 0 100 100">
  <title>Asset 7</title>
  <g>
    <path d="M34.722,62.987H48.783l3.8,12.6H64.518L49.284,26.452H34.722L19.681,75.588H31.2Zm6.763-28.235h.142c.722,2.94,5.56,19.906,5.56,19.906H36.311s4.443-16.966,5.174-19.906Z"/>
    <rect x="68.856" y="39.954" width="11.098" height="35.635"/>
    <path d="M74.337,35.568c3.663,0,5.982-2.491,5.982-5.538a5.554,5.554,0,0,0-5.9-5.618c-3.578,0-5.925,2.4-5.846,5.618a5.426,5.426,0,0,0,5.76,5.538Z"/>
    <path d="M0,0V100H100V0ZM93.814,93.814H6.186V6.186H93.814Z"/>
  </g>
</svg>
