<svg xmlns="http://www.w3.org/2000/svg" width="100" height="100" viewBox="0 0 100 100">
  <title>Asset 9</title>
  <g>
    <rect x="24.234" y="26.954" width="10.852" height="47.836"/>
    <path d="M54.7,75.588A12.144,12.144,0,0,0,65.549,69.7h.164l.472,5.092h9.581c-.122-2.322-.285-6.461-.285-10.371V24.412H64.694V43.218h-.13c-1.557-2.413-4.9-3.912-9.167-3.912-8.3,0-15.627,6.747-15.529,18.463,0,10.788,6.583,17.819,14.829,17.819Zm3.536-28.036a6.464,6.464,0,0,1,6.3,5.312,13.086,13.086,0,0,1,.163,1.939v4.522a8.858,8.858,0,0,1-.286,2.485,6.308,6.308,0,0,1-6.241,5.182c-4.489,0-7.382-3.691-7.382-9.573,0-5.476,2.542-9.867,7.447-9.867Z"/>
    <path d="M0,0V100H100V0ZM93.814,93.814H6.186V6.186H93.814Z"/>
  </g>
</svg>
