<svg xmlns="http://www.w3.org/2000/svg" width="125" height="126.009" viewBox="0 0 125 126.009">
  <title>Asset 2</title>
  <g>
    <path d="M120.087,71.682a58.817,58.817,0,0,1-45.355,47.969c-.173.036-.347.067-.52.1a16.378,16.378,0,0,0,3.832-7.516,2.36,2.36,0,0,0,.049-.343c0-.066.009-.133.009-.2L78.1,93.811c.089-.974.134-1.983.134-3,0-2.245,1.831-4.69,4.152-7.788,3.965-5.286,9.392-12.527,9.392-24.56A29.28,29.28,0,0,0,34.7,49.274a2.624,2.624,0,0,0,3.676,3.165,2.576,2.576,0,0,0,1.307-1.516,24.031,24.031,0,0,1,46.844,7.544c0,10.286-4.627,16.456-8.343,21.417-2.792,3.725-5.206,6.939-5.206,10.931v.244H65.122V86.694a2.623,2.623,0,1,0-5.246,0v4.365H52.017v-.244c0-3.992-2.409-7.21-5.2-10.931-2.743-3.659-5.85-7.806-7.384-13.665a2.628,2.628,0,0,0-3.205-1.876,2.62,2.62,0,0,0-1.871,3.2c1.791,6.859,5.379,11.642,8.259,15.487,2.321,3.094,4.152,5.539,4.152,7.784,0,1.018.045,2.027.129,2.951v17.928c0,.058,0,.12.013.258a2.222,2.222,0,0,0,.045.289,16.415,16.415,0,0,0,3.663,7.33A59.671,59.671,0,0,1,13.752,93.7C.79,73.469,2.675,47.02,16.722,27.946,31.209,8.266,57.485.816,80.48,7.831c17.83,5.436,31.784,20.092,37.54,37.624,1.014,3.081,5.89,1.761,4.872-1.342A63.98,63.98,0,0,0,76.386,1.505C54.857-3.438,32.1,4.079,16.962,19.882,1.785,35.725-3.411,58.929,2.2,79.928,7.72,100.617,24.39,116.86,44.593,123.239c36,11.362,74.223-13.576,80.366-50.214C125.493,69.842,120.625,68.473,120.087,71.682ZM62.5,119.785a10.7,10.7,0,0,1-9.206-5.468H71.705A10.7,10.7,0,0,1,62.5,119.785Zm10.353-10.718H52.146v-3.756H72.852Zm0-9H52.146V96.309H72.852Z"/>
    <path d="M59.875,18.13v5.645a2.625,2.625,0,1,0,5.25,0V18.13a2.625,2.625,0,0,0-5.25,0Z"/>
    <path d="M27.808,55.844H22.162a2.625,2.625,0,1,0,0,5.25h5.646a2.625,2.625,0,0,0,0-5.25Z"/>
    <path d="M65.124,65.375h4.961a2.625,2.625,0,0,0,0-5.25H54.913a2.625,2.625,0,0,0,0,5.25h4.961V69.74a2.625,2.625,0,0,0,5.25,0Z"/>
    <path d="M37.969,36.563a2.625,2.625,0,0,0,1.853-4.481L35.83,28.09A2.624,2.624,0,1,0,32.119,31.8l4,3.992A2.59,2.59,0,0,0,37.969,36.563Z"/>
    <path d="M32.513,91.079a2.586,2.586,0,0,0,1.854-.769l4-3.992a2.627,2.627,0,0,0,0-3.711,2.686,2.686,0,0,0-3.711,0l-4,3.992a2.625,2.625,0,0,0,1.858,4.48Z"/>
    <path d="M89.167,28.089l-3.992,3.992a2.633,2.633,0,0,0,0,3.711,2.629,2.629,0,0,0,3.716,0L92.879,31.8a2.624,2.624,0,0,0-3.712-3.711Z"/>
    <path d="M88.491,81.837a2.624,2.624,0,0,0-1.853,4.481l3.991,3.991A2.624,2.624,0,1,0,94.341,86.6l-4-3.992A2.588,2.588,0,0,0,88.491,81.837Z"/>
    <path d="M97.191,61.093h5.645a2.625,2.625,0,1,0,0-5.25H97.191a2.625,2.625,0,0,0,0,5.25Z"/>
    <path d="M62.5,75.593a2.625,2.625,0,1,0,2.623,2.623A2.624,2.624,0,0,0,62.5,75.593Z"/>
    <path d="M38.474,58.469a2.625,2.625,0,1,0-2.623,2.623A2.625,2.625,0,0,0,38.474,58.469Z"/>
  </g>
</svg>
