<svg xmlns="http://www.w3.org/2000/svg" width="25" height="25" viewBox="0 0 25 25">
  <title>Asset 19</title>
  <g>
    <path d="M18.1,0H6.9A6.907,6.907,0,0,0,0,6.9V18.1A6.907,6.907,0,0,0,6.9,25H18.1A6.907,6.907,0,0,0,25,18.1V6.9A6.907,6.907,0,0,0,18.1,0Zm4.681,18.1A4.686,4.686,0,0,1,18.1,22.782H6.9A4.686,4.686,0,0,1,2.218,18.1V6.9A4.686,4.686,0,0,1,6.9,2.218H18.1A4.686,4.686,0,0,1,22.782,6.9Z" fill="#fff"/>
    <path d="M12.5,6.059A6.442,6.442,0,1,0,18.942,12.5,6.449,6.449,0,0,0,12.5,6.059Zm0,10.664A4.224,4.224,0,1,1,16.724,12.5,4.228,4.228,0,0,1,12.5,16.723Z" fill="#fff"/>
    <path d="M19.212,4.178a1.627,1.627,0,1,0,1.15.476,1.63,1.63,0,0,0-1.15-.476Z" fill="#fff"/>
  </g>
</svg>
