<?xml version="1.0" encoding="utf-8"?>
<!-- Generator: Adobe Illustrator 23.0.1, SVG Export Plug-In . SVG Version: 6.00 Build 0)  -->
<svg version="1.1" id="Layer_1" xmlns="http://www.w3.org/2000/svg" xmlns:xlink="http://www.w3.org/1999/xlink" x="0px" y="0px"
	 viewBox="0 0 100 100" style="enable-background:new 0 0 100 100;" xml:space="preserve">
<title>Asset 6</title>
<g>
	<path d="M51.2,66.2v-1.4H33.9V24.4H21.4v51.2h29.8V66.2z"/>
	<path d="M56.3,75.6h11.3V57.1c0-0.9,0.1-1.7,0.2-2.5c0.8-3.5,3.6-5.8,7.8-5.8c1,0,2,0.1,3,0.3V38.5c-0.8-0.1-1.6-0.2-2.4-0.1
		c-4.5,0.2-8.5,3.2-9.9,7.5h-0.3l-0.4-6.7H56c0.1,3.2,0.3,6.7,0.3,12L56.3,75.6z"/>
	<path d="M0,0v100h100V0H0z M93.8,93.8H6.2V6.2h87.6V93.8z"/>
</g>
</svg>
