<svg xmlns="http://www.w3.org/2000/svg" width="351.137" height="40" viewBox="0 0 351.137 40">
  <title>Asset 1</title>
  <g>
    <g>
      <polygon points="37.261 12.945 22.283 31.129 7.305 12.945 0 12.945 22.283 40 44.566 12.945 37.261 12.945" fill="#fff"/>
      <polygon points="36.299 8.872 36.299 0 22.283 17.018 18.928 12.945 11.622 12.945 22.283 25.889 36.299 8.872" fill="#fff"/>
    </g>
    <g>
      <path d="M61.439,18.2h2.833V30.709a4.052,4.052,0,0,1-4.047,4.047h-.844v5.232h.844A9.289,9.289,0,0,0,69.5,30.709V18.2h2.833V12.972h-10.9Z" fill="#fff"/>
      <path d="M86.886,12.994c-7.044,0-12.775,6.055-12.775,13.5s5.731,13.5,12.775,13.5,12.775-6.054,12.775-13.5S93.93,12.994,86.886,12.994Zm0,21.762c-4.159,0-7.542-3.707-7.542-8.265s3.383-8.265,7.542-8.265,7.542,3.708,7.542,8.265S91.045,34.756,86.886,34.756Z" fill="#fff"/>
      <polygon points="108.004 12.983 103.193 12.983 103.193 39.999 108.426 39.999 108.426 22.256 121.757 40 126.566 40 126.566 12.983 121.335 12.983 121.335 30.726 108.004 12.983" fill="#fff"/>
      <polygon points="264.731 12.983 259.921 12.983 259.921 39.999 265.153 39.999 265.153 22.256 278.484 40 283.294 40 283.294 12.983 278.062 12.983 278.062 30.726 264.731 12.983" fill="#fff"/>
      <polygon points="332.574 12.983 327.764 12.983 327.764 39.999 332.996 39.999 332.996 22.256 346.327 40 351.137 40 351.137 12.983 345.905 12.983 345.905 30.726 332.574 12.983" fill="#fff"/>
      <path d="M138.331,12.972l-9.5,27.014h5.547l2.348-6.673H144.9l2.348,6.673h5.548l-9.5-27.014Zm4.724,15.109h-4.492l2.246-6.384Z" fill="#fff"/>
      <path d="M163.362,12.972c-5.166,0-9.369,3.612-9.369,8.052,0,4.2,3.753,7.653,8.525,8.021v.043h.844c2.2,0,4.136,1.318,4.136,2.821s-1.933,2.82-4.136,2.82-4.136-1.318-4.136-2.82v-.844h-5.233v.844c0,4.44,4.2,8.052,9.369,8.052s9.368-3.612,9.368-8.052c0-4.2-3.753-7.653-8.524-8.021v-.043h-.844c-2.2,0-4.136-1.318-4.136-2.82s1.932-2.821,4.136-2.821,4.136,1.318,4.136,2.82v.844h5.232v-.844C172.73,16.584,168.527,12.972,163.362,12.972Z" fill="#fff"/>
      <polygon points="198.665 31.262 192.23 12.972 186.682 12.972 196.187 39.987 201.143 39.987 210.648 12.972 205.1 12.972 198.665 31.262" fill="#fff"/>
      <path d="M231.461,21.033a8.071,8.071,0,0,0-8.063-8.061H212.9V39.988h5.233V29.1h4.648l3.5,10.893h5.5l-3.926-12.235A8.058,8.058,0,0,0,231.461,21.033Zm-5.232,0a2.834,2.834,0,0,1-2.829,2.83h-5.265V18.2H223.4c.06,0,.12,0,.177.006A2.831,2.831,0,0,1,226.229,21.033Z" fill="#fff"/>
      <path d="M243.206,12.972l-9.5,27.014h5.547l2.348-6.673h8.174l2.348,6.673h5.548l-9.5-27.014Zm4.723,15.109h-4.492l2.246-6.384Z" fill="#fff"/>
      <polygon points="307.368 12.972 300.165 12.972 292.925 20.619 292.925 12.972 287.693 12.972 287.693 39.988 292.925 39.988 292.925 32.342 300.165 39.988 307.368 39.988 294.581 26.481 307.368 12.972" fill="#fff"/>
      <polygon points="308.839 39.989 324.631 39.989 324.631 34.756 314.071 34.756 314.071 29.096 320.815 29.096 320.815 23.864 314.071 23.864 314.071 18.204 324.631 18.204 324.631 12.972 308.839 12.972 308.839 39.989" fill="#fff"/>
    </g>
  </g>
</svg>
