<svg xmlns="http://www.w3.org/2000/svg" width="26.667" height="20" viewBox="0 0 26.667 20">
  <title>Asset 12</title>
  <path d="M.518,1.562A3.3,3.3,0,0,0,0,3.332V16.666a3.312,3.312,0,0,0,.427,1.6l8.42-9.422ZM16.565,9.946l-2.684,2.347a.833.833,0,0,1-1.1,0L10.1,9.944,1.576,19.487A3.3,3.3,0,0,0,3.332,20h20a3.3,3.3,0,0,0,1.757-.513Zm-3.232.614L24.922.42A3.257,3.257,0,0,0,23.334,0h-20A3.253,3.253,0,0,0,1.745.42Zm13.334,6.106a3.3,3.3,0,0,1-.429,1.6L17.82,8.849l8.327-7.287a3.306,3.306,0,0,1,.52,1.77Z"/>
</svg>
