<svg xmlns="http://www.w3.org/2000/svg" width="100" height="100" viewBox="0 0 100 100">
  <title>Asset 8</title>
  <g>
    <path d="M66.241,67.714a22.205,22.205,0,0,1-9.726-2.743l-2.009,8.081a25.572,25.572,0,0,0,11.735,2.536c10.384,0,15.748-4.975,15.748-11.755-.079-5.338-2.972-8.843-9.883-11.2-4.44-1.574-5.839-2.465-5.839-4.168,0-1.854,1.548-2.972,4.291-2.972a17.9,17.9,0,0,1,7.874,2.087l2-7.8A24.319,24.319,0,0,0,70.174,37.7C61.189,37.7,55.4,42.826,55.4,49.581,55.318,53.9,58.212,57.988,65.734,60.5c4.213,1.424,5.331,2.308,5.331,4.161s-1.423,3.049-4.824,3.049Z"/>
    <path d="M29.213,56.948a28.889,28.889,0,0,0,3.856.2c6.684,0,12.419-1.626,16.254-5.253,3-2.822,4.623-6.99,4.623-11.886a14.534,14.534,0,0,0-5.358-11.586c-3.328-2.692-8.3-4.012-15.291-4.012a93.365,93.365,0,0,0-15.286,1.041v49.4h11.2ZM29.234,33.4a18.6,18.6,0,0,1,4.649-.455c5.662,0,8.841,2.738,8.867,7.335,0,5.136-3.738,8.179-9.752,8.179a18.281,18.281,0,0,1-3.764-.28Z"/>
    <path d="M0,0V100H100V0ZM93.814,93.814H6.186V6.186H93.814Z"/>
  </g>
</svg>
