<svg xmlns="http://www.w3.org/2000/svg" width="123.998" height="124.998" viewBox="0 0 123.998 124.998">
  <title>Asset 5</title>
  <g>
    <path d="M61.312,56.8a4.077,4.077,0,1,1-4.074,4.074A4.059,4.059,0,0,1,61.312,56.8m0,13.163a9.086,9.086,0,1,0-9.088-9.089,9.079,9.079,0,0,0,9.088,9.089"/>
    <path d="M81.015,56.8a4.077,4.077,0,1,1-4.075,4.074A4.078,4.078,0,0,1,81.015,56.8m0,13.163a9.086,9.086,0,1,0-9.088-9.089,9.1,9.1,0,0,0,9.088,9.089"/>
    <path d="M41.57,56.8a4.077,4.077,0,1,1-4.075,4.074A4.078,4.078,0,0,1,41.57,56.8m0,13.163a9.086,9.086,0,1,0-9.089-9.089,9.1,9.1,0,0,0,9.089,9.089"/>
    <path d="M17.791,60.82c0-18.547,19.526-33.632,43.523-33.632,23.975,0,43.479,15.085,43.479,33.632,0,18.564-19.5,33.667-43.479,33.667A54.288,54.288,0,0,1,45.14,92.066a2.5,2.5,0,0,0-2.293.419c-3.532,2.77-9.719,7.02-16.254,8.7,2.355-4.842,3.166-10.878,3.386-15.725a2.5,2.5,0,0,0-.877-2.019C21.808,77.224,17.791,69.194,17.791,60.82M119.124,71.108a58.348,58.348,0,0,1-44.991,47.584c-17.325,3.876-35.18-1.209-48.457-12.193,7.262-1.283,14.163-5.446,19.23-9.273A59.459,59.459,0,0,0,61.314,99.5C88.05,99.5,109.8,82.149,109.8,60.82c0-21.307-21.752-38.641-48.488-38.641-26.762,0-48.532,17.334-48.532,38.641,0,9.489,4.3,18.538,12.126,25.6-.449,6.87-2.015,12.166-4.467,15.2a58.637,58.637,0,0,1-6.8-8.678C.788,72.88,2.653,46.643,16.587,27.721,30.958,8.2,57.024.805,79.834,7.768c17.687,5.393,31.529,19.931,37.24,37.323,1,3.056,5.842,1.746,4.833-1.332A63.461,63.461,0,0,0,75.773,1.493C54.417-3.41,31.845,4.046,16.826,19.722,1.771,35.438-3.384,58.456,2.181,79.287,7.662,99.81,24.194,115.922,44.236,122.25c35.713,11.271,73.627-13.467,79.721-49.811.529-3.161-4.3-4.515-4.833-1.331"/>
  </g>
</svg>
