<svg xmlns="http://www.w3.org/2000/svg" width="123.016" height="124.003" viewBox="0 0 123.016 124.003">
  <title>Asset 4</title>
  <g>
    <path d="M73.548,117.746a54.188,54.188,0,0,1-24.533-.258l10.9-10.945A18.732,18.732,0,0,0,70.8,109.285l7.257,7.258c-1.47.459-2.979.866-4.51,1.2M18.459,98.8,32.956,84.3a8,8,0,0,0,3.583.853,7.927,7.927,0,0,0,7.931-7.734,7.923,7.923,0,0,0,7.739-7.734,7.941,7.941,0,0,0,7.734-7.725,7.936,7.936,0,0,0,6.216-12.608l12.8-12.8a3.062,3.062,0,0,1,4.234,0,2.931,2.931,0,0,1,.875,2.117,2.97,2.97,0,0,1-.875,2.117L74.243,49.73a2.472,2.472,0,0,0,0,3.5,2.532,2.532,0,0,0,3.5,0l7.008-7.021a3,3,0,0,1,4.239,4.239l-7.012,7.016a2.47,2.47,0,0,0,0,3.491,2.518,2.518,0,0,0,3.49,0l5.079-5.078a3.084,3.084,0,0,1,4.239,0,2.978,2.978,0,0,1,.875,2.117,2.948,2.948,0,0,1-.875,2.117L89.7,65.19a2.483,2.483,0,0,0,0,3.5,2.532,2.532,0,0,0,3.5,0l2.428-2.424a3,3,0,0,1,4.234,0,3,3,0,0,1,0,4.235l-19.16,19.16a26.332,26.332,0,0,1-17.669,7.695,2.417,2.417,0,0,0-1.658.726l-17.7,17.756-.061.057A58.824,58.824,0,0,1,18.459,98.8m40.78-57.026,5.42-.031a2.472,2.472,0,1,0-.022-4.943l-5.438.03A4.532,4.532,0,0,1,54.672,32.3v-.118H67.708A8.722,8.722,0,0,1,73.823,34.7L62.73,45.784l-4.038-4.037c.179.008.359.022.547.022M45.765,40.058a3,3,0,0,1,4.235,0L61.855,51.909a3,3,0,0,1,0,4.234,3.076,3.076,0,0,1-4.239,0L45.765,44.293a3,3,0,0,1,0-4.235M39.094,51.839a2.987,2.987,0,0,1,2.992-2.992,3,3,0,0,1,2.117.866l9.922,9.93A2.97,2.97,0,0,1,55,61.76a2.993,2.993,0,0,1-5.11,2.118l-9.921-9.922a2.97,2.97,0,0,1-.875-2.117M33.3,61.5a3,3,0,0,1,2.992-3,2.979,2.979,0,0,1,2.117.884l7.984,7.983a3,3,0,0,1,0,4.235,3.063,3.063,0,0,1-4.235,0l-7.984-7.984A2.965,2.965,0,0,1,33.3,61.5m1.119,17.835L29.089,74a2.994,2.994,0,0,1,4.235-4.234L38.656,75.1a3,3,0,0,1,0,4.234,3.072,3.072,0,0,1-4.239,0m83.764-8.8a58.893,58.893,0,0,1-6.395,18.522c-.057-.07-.118-.14-.175-.2l-4.624-4.585a2.367,2.367,0,0,0-1.68-.686h-.013a2.327,2.327,0,0,0-1.68.708,2.381,2.381,0,0,0-.7,1.689,2.409,2.409,0,0,0,.7,1.688l4.615,4.576a2.347,2.347,0,0,0,1.242.643,57.5,57.5,0,0,1-26.291,21.794l-9.694-9.7a2.456,2.456,0,0,0-1.946-.713l-.626.048a13.914,13.914,0,0,1-7.38-1.422l.665-.665a31.216,31.216,0,0,0,20-9.09l19.161-19.156a7.917,7.917,0,0,0-3.272-13.185,7.9,7.9,0,0,0-1.807-8.421,7.974,7.974,0,0,0-3.719-2.1,7.939,7.939,0,0,0-5.8-9.664,7.947,7.947,0,0,0-7.695-9.89,7.953,7.953,0,0,0-3.447.783,13.707,13.707,0,0,0-9.917-4.274H52.2a2.474,2.474,0,0,0-2.467,2.476V32.3a9.615,9.615,0,0,0,.258,2.218,7.966,7.966,0,0,0-2.109-.289,7.93,7.93,0,0,0-7.686,9.9,7.905,7.905,0,0,0-5.8,9.654A7.935,7.935,0,0,0,28.862,64.3,7.936,7.936,0,0,0,25.59,77.5l3.591,3.578L15.366,94.9c-.634-.875-1.251-1.781-1.837-2.695C.782,72.3,2.632,46.27,16.451,27.5,30.712,8.133,56.575.805,79.2,7.7c17.551,5.35,31.282,19.777,36.948,37.026,1,3.032,5.8,1.728,4.794-1.321A62.979,62.979,0,0,0,75.175,1.479C53.989-3.381,31.6,4.016,16.692,19.563,1.757,35.154-3.357,57.994,2.164,78.655A58.821,58.821,0,0,0,11.788,98.48c.1.127.2.267.3.394s.21.28.3.411c.608.783,1.233,1.549,1.881,2.306.1.126.2.249.319.376a2.81,2.81,0,0,0,.328.367,64.215,64.215,0,0,0,28.973,18.942,59.312,59.312,0,0,0,39.266-1.312c.219-.079.429-.171.647-.25,19.778-7.826,35.469-25.652,39.179-47.853.525-3.132-4.257-4.471-4.8-1.321"/>
    <path d="M98.911,79.6l-.009.008a2.367,2.367,0,0,0-.7,1.693,2.4,2.4,0,0,0,2.384,2.384,2.355,2.355,0,0,0,1.693-.7A2.388,2.388,0,0,0,98.911,79.6"/>
  </g>
</svg>
