<svg xmlns="http://www.w3.org/2000/svg" width="20.045" height="20" viewBox="0 0 20.045 20">
  <title>Asset 11</title>
  <path d="M19.6,15.819l-3.1-3.1a1.614,1.614,0,0,0-2.276.044l-1.559,1.559c-.1-.053-.2-.111-.309-.171A15.589,15.589,0,0,1,8.6,11.441,15.639,15.639,0,0,1,5.886,7.682l-.167-.3L6.765,6.336l.515-.515a1.612,1.612,0,0,0,.042-2.275L4.225.45A1.611,1.611,0,0,0,1.949.492l-.871.877.023.025A5,5,0,0,0,.383,2.66a5.2,5.2,0,0,0-.32,1.288C-.346,7.337,1.2,10.434,5.405,14.636c5.81,5.809,10.492,5.371,10.7,5.348a5.185,5.185,0,0,0,1.289-.323,4.984,4.984,0,0,0,1.263-.716l.018.018.885-.866a1.617,1.617,0,0,0,.041-2.278"/>
</svg>
