<svg xmlns="http://www.w3.org/2000/svg" width="124.001" height="124.998" viewBox="0 0 124.001 124.998">
  <title>Asset 5</title>
  <path d="M54.7,119.439V103.48H69.309v16.059a54.254,54.254,0,0,1-14.611-.1m9.781-25.688v5H59.536V93.708c.433.022.862.03,1.3.052h.131ZM45.927,81.993a21.785,21.785,0,0,1,15.783-36.5c.3,0,.595.009.884.022l.372.018a21.781,21.781,0,0,1-.683,43.54c-.3,0-.59-.013-.892-.022l-.35-.009a21.636,21.636,0,0,1-15.114-7.047M21.311,67.281c5.972-9.051,13.12-15.153,21.781-18.561a26.452,26.452,0,0,0-2.3,34.476c.459.6.94,1.194,1.452,1.763A47.951,47.951,0,0,1,21.311,67.281m81.385,0c-5.963,9.051-13.12,15.162-21.79,18.57A26.474,26.474,0,0,0,83.22,51.375c-.459-.612-.94-1.2-1.452-1.763A47.892,47.892,0,0,1,102.7,67.281m16.435,3.828A58.364,58.364,0,0,1,74.138,118.7a.469.469,0,0,1-.109.022v-17.6a2.36,2.36,0,0,0-2.353-2.366H69.2v-5.3c16.115-1.724,29-10.106,38.3-24.909a2.372,2.372,0,0,0,0-2.515A56.131,56.131,0,0,0,98.894,55.4l8.609-9.051a.727.727,0,0,0,.215-.529.769.769,0,0,0-.232-.534l-2.336-2.213a.749.749,0,0,0-1.063.017l-8.741,9.182a51.184,51.184,0,0,0-11.4-6.894L88.36,34.328a.742.742,0,0,0-.42-.976l-2.988-1.2a.715.715,0,0,0-.568.009.733.733,0,0,0-.412.411l-4.44,11.1A56.4,56.4,0,0,0,64.366,40.85V28.614a.754.754,0,0,0-.748-.752H60.389a.758.758,0,0,0-.752.752V40.78A53.876,53.876,0,0,0,44.094,43.4L40.052,32.621a.754.754,0,0,0-.971-.441l-3.019,1.133a.747.747,0,0,0-.42.393.758.758,0,0,0-.017.569L39.685,45.1a47.535,47.535,0,0,0-10.368,6.313l-9.541-8.461a.765.765,0,0,0-1.059.07L16.583,45.43a.757.757,0,0,0,.07,1.063l9.09,8.067A60.106,60.106,0,0,0,16.5,66.026a2.356,2.356,0,0,0,0,2.506A52.735,52.735,0,0,0,54.807,93.3v5.456H52.34a2.351,2.351,0,0,0-1.671.691,2.322,2.322,0,0,0-.691,1.675v17.446A59.267,59.267,0,0,1,13.643,92.946C.786,72.885,2.658,46.642,16.591,27.722,30.962,8.2,57.03.8,79.843,7.765c17.691,5.394,31.532,19.935,37.245,37.324,1,3.058,5.84,1.745,4.829-1.33A63.494,63.494,0,0,0,75.783,1.492c-21.356-4.9-43.938,2.546-58.951,18.233C1.779,35.439-3.383,58.449,2.177,79.289,7.658,99.815,24.2,115.93,44.243,122.252a55.961,55.961,0,0,0,5.735,1.5,59.154,59.154,0,0,0,24.051.03c24.677-5.03,45.552-25.18,49.931-51.335.534-3.167-4.3-4.523-4.829-1.334"/>
</svg>
